<?xml version="1.0" encoding="UTF-8"?>
<svg xmlns="http://www.w3.org/2000/svg" viewBox="0 0 88.79 82.03">
  <defs>
    <style>
      .st0 { fill: #1c75bc; fill-rule: evenodd; }
      .st1 { fill: #a8d8b7; }
    </style>
  </defs>
  <path class="st0" d="M28.07,11.31h24v-3.18c0-2.13-1.74-3.87-3.87-3.87h-16.26c-2.13,0-3.87,1.74-3.87,3.87v3.18ZM22.79,74.44h-7.28c.16,1.87,1.73,3.34,3.64,3.34h0c1.9,0,3.48-1.48,3.64-3.34ZM64.63,74.44h-7.28c.16,1.87,1.73,3.34,3.64,3.34h0c1.9,0,3.48-1.48,3.64-3.34ZM15.74,70.18V15.56h-2.68c-4.85,0-8.81,3.97-8.81,8.81v37c0,4.85,3.97,8.81,8.81,8.81h2.68ZM13.07,11.31h10.75v-3.18C23.82,3.66,27.48,0,31.94,0h16.26c4.47,0,8.12,3.66,8.12,8.12v3.18h10.75c7.19,0,13.07,5.88,13.07,13.07v5.73l-4.25-.38v-5.35c0-4.85-3.97-8.81-8.81-8.81H20v54.63h47.08c4.85,0,8.81-3.97,8.81-8.81v-6.66l4.25,2.69v3.97c0,6.57-4.91,12.05-11.25,12.94-.1,4.26-3.61,7.72-7.9,7.72s-7.73-3.39-7.9-7.59h-26.05c-.16,4.21-3.65,7.59-7.9,7.59h0c-4.29,0-7.8-3.46-7.9-7.72C4.91,73.44,0,67.96,0,61.39V24.37C0,17.18,5.87,11.3,13.06,11.3h.01,0Z"/>
  <path class="st1" d="M80.49,33.46l-26.99-2.44c-1.96-.26-2.7.9-1.63,2.57l13.68,23.43c1.07,1.67,2.81,1.66,3.87,0l4.67-7.36,11.32,7.17,3.37-5.32-11.32-7.17,4.67-7.36c1.06-1.67.32-3.25-1.64-3.51"/>
  <path class="st1" d="M48.92,34.34c.17.46.03.06,0-.06-.06-.22-.12-.44-.16-.66-.03-.17-.06-.33-.08-.5,0-.07-.02-.14-.02-.21.03.26,0-.07,0-.12-.02-.38,0-.77.05-1.15,0-.07,0-.05,0,.04,0-.06.02-.11.03-.17.03-.11.05-.22.08-.33.06-.2.12-.39.21-.58-.09.2.08-.13.1-.17.05-.08.1-.16.15-.24.17-.25.12-.2.36-.43.85-.83,2.07-1.17,3.28-1.35.52-.07.84-.68.73-1.16-.12-.54-.64-.81-1.16-.73-2.21.32-4.33,1.31-5.29,3.43-.59,1.3-.6,2.81-.3,4.19.08.37.18.72.32,1.07.18.49.88.64,1.31.42.51-.26.6-.81.42-1.31"/>
  <path class="st1" d="M45.13,35.29c.18.47-.03-.12-.07-.25-.11-.36-.19-.72-.26-1.09-.22-1.13-.29-2.27-.12-3.43.2-1.33.78-2.6,1.74-3.54,1.53-1.5,3.66-2.09,5.73-2.38,1.24-.18.81-2.07-.42-1.89-3.4.49-6.8,1.96-8.29,5.25-.94,2.06-.95,4.43-.49,6.62.12.55.27,1.09.47,1.62.44,1.17,2.16.26,1.72-.89"/>
</svg>
